<svg xmlns="http://www.w3.org/2000/svg" width="1640" height="850" viewBox="0 0 1640 850">
  <g id="Group_138" data-name="Group 138" transform="translate(-140 -124)">
    <rect id="Rectangle_93" data-name="Rectangle 93" width="1640" height="850" transform="translate(140 124)" fill="#fff"/>
    <g id="feather" transform="translate(577.271 773.739) rotate(-178)" opacity="0.44">
      <path id="Path_7" data-name="Path 7" d="M98.189,49.685a42.706,42.706,0,0,0-7.016,1.12,2.727,2.727,0,0,0-.7,5.045c30,16.648,46.373,42.516,53.7,57.132a2.735,2.735,0,0,1-4.058,3.42,44.746,44.746,0,0,0-5.8-3.481,2.734,2.734,0,0,0-3.109,4.435c18.06,16.7,35.037,50.382,42.684,66.864a2.727,2.727,0,0,1-3.593,3.641,39.643,39.643,0,0,0-8.663-2.717,2.726,2.726,0,0,0-2.311,4.732C182.81,210.093,191.189,242.84,194,259.052a2.742,2.742,0,0,1-4.3,2.688,22.1,22.1,0,0,0-10.949-3.214A2.731,2.731,0,0,0,176.535,263c28.124,33.818,16.642,61.372,13.034,68.189a2.741,2.741,0,0,1-2.8,1.446c-7.648-.994-36.771-7.546-48.118-50.043a2.732,2.732,0,0,0-4.938-.775,22.1,22.1,0,0,0-3.7,10.794,2.743,2.743,0,0,1-4.679,1.955c-11.606-11.664-33.489-37.426-36.417-68.277a2.726,2.726,0,0,0-5.2-.848,39.616,39.616,0,0,0-2.788,8.64,2.727,2.727,0,0,1-5.047.829c-9.032-15.765-26.71-49.082-29.9-73.474a2.734,2.734,0,0,0-5.417-.026,44.877,44.877,0,0,0-.512,6.749,2.735,2.735,0,0,1-5.137,1.335c-7.693-14.427-19.342-42.739-15.594-76.842A2.727,2.727,0,0,0,14.8,90.309a42.815,42.815,0,0,0-4.969,5.08,2.733,2.733,0,0,1-4.688-.883C2.414,86.812-.687,70.934,7.753,48.588a2.731,2.731,0,0,0-3.567-3.511c-.07.03-.141.061-.211.093a2.746,2.746,0,0,1-3.857-3.2A281.66,281.66,0,0,1,15.413,1.6a2.816,2.816,0,0,1,3-1.554A281.7,281.7,0,0,1,60.2,10.887a2.747,2.747,0,0,1,.385,5c-.067.039-.132.079-.2.119a2.73,2.73,0,0,0,.8,4.94c23.115,6.025,34.28,17.731,38.981,24.406A2.732,2.732,0,0,1,98.189,49.685Z" transform="translate(233.658 102.823)" fill="rgba(3,3,3,0.09)"/>
      <path id="Path_8" data-name="Path 8" d="M187.591,378.886S44.751,160.829,0,0L10.526,14.877S133.669,286.571,187.591,378.886Z" transform="translate(215.32 15.055)" fill="rgba(3,3,3,0.09)"/>
      <path id="Path_9" data-name="Path 9" d="M207.183,12.009C148.62,10.777,133.041,23.933,129,31.843c-5.933,11.6,4.586,25.8,4.863,26.181,2.382,3.476,9.626,14.055,3.4,21.578-3.416,4.143-12.5,15.152-99.111-22.637a32.965,32.965,0,0,0-20.541-2.328c-1.244.285-5.328,1.355-5.659,3.146-1.66,8.978,27.643,35.442,56.2,54.688l-7.718,3.28A10.224,10.224,0,0,1,50.4,114.617C29.825,99.7-2.977,72.89.217,55.616c.811-4.4,4.023-10.159,14.715-12.61a44.652,44.652,0,0,1,27.99,3.025c53.1,23.166,79.3,28.234,84.806,26.056-.153-.9-.811-3.085-3.537-7.077-.62-.814-15.149-20.215-5.86-38.524C127.258,8.9,154.736,0,200.071,0q3.6,0,7.356.075a5.968,5.968,0,0,1,5.844,6.087A5.847,5.847,0,0,1,207.183,12.009Z" transform="translate(0 0)" fill="rgba(3,3,3,0.09)"/>
    </g>
    <g id="feather-2" data-name="feather" transform="matrix(0.999, -0.035, 0.035, 0.999, 1330.915, 338.518)" opacity="0.44">
      <path id="Path_7-2" data-name="Path 7" d="M98.189,282.978a42.706,42.706,0,0,1-7.016-1.12,2.727,2.727,0,0,1-.7-5.045c30-16.648,46.373-42.516,53.7-57.132a2.735,2.735,0,0,0-4.058-3.42,44.746,44.746,0,0,1-5.8,3.481,2.734,2.734,0,0,1-3.109-4.435c18.06-16.7,35.037-50.382,42.684-66.864A2.727,2.727,0,0,0,170.3,144.8a39.643,39.643,0,0,1-8.663,2.717,2.726,2.726,0,0,1-2.311-4.732C182.81,122.57,191.189,89.824,194,73.611a2.742,2.742,0,0,0-4.3-2.688,22.1,22.1,0,0,1-10.949,3.214,2.731,2.731,0,0,1-2.221-4.478C204.659,35.84,193.177,8.286,189.569,1.47a2.741,2.741,0,0,0-2.8-1.446c-7.648.994-36.771,7.546-48.118,50.043a2.732,2.732,0,0,1-4.938.775,22.1,22.1,0,0,1-3.7-10.794,2.743,2.743,0,0,0-4.679-1.955C113.729,49.757,91.846,75.519,88.917,106.37a2.726,2.726,0,0,1-5.2.848,39.616,39.616,0,0,1-2.788-8.64,2.727,2.727,0,0,0-5.047-.829c-9.032,15.765-26.71,49.082-29.9,73.474a2.734,2.734,0,0,1-5.417.026,44.877,44.877,0,0,1-.512-6.749,2.735,2.735,0,0,0-5.137-1.335c-7.693,14.427-19.342,42.739-15.594,76.842a2.727,2.727,0,0,1-4.519,2.347,42.815,42.815,0,0,1-4.969-5.08,2.733,2.733,0,0,0-4.688.883c-2.731,7.693-5.832,23.571,2.608,45.918a2.731,2.731,0,0,1-3.567,3.511c-.07-.03-.141-.061-.211-.093a2.746,2.746,0,0,0-3.857,3.2,281.66,281.66,0,0,0,15.3,40.371,2.816,2.816,0,0,0,3,1.554A281.7,281.7,0,0,0,60.2,321.776a2.747,2.747,0,0,0,.385-5c-.067-.039-.132-.079-.2-.119a2.73,2.73,0,0,1,.8-4.94c23.115-6.025,34.28-17.731,38.981-24.406A2.732,2.732,0,0,0,98.189,282.978Z" transform="translate(233.658 0)" fill="rgba(3,3,3,0.09)"/>
      <path id="Path_8-2" data-name="Path 8" d="M187.59,0S44.751,218.057,0,378.886l10.526-14.877S133.669,92.315,187.59,0Z" transform="translate(215.32 41.545)" fill="rgba(3,3,3,0.09)"/>
      <path id="Path_9-2" data-name="Path 9" d="M207.183,104.563C148.62,105.794,133.041,92.639,129,84.729c-5.933-11.6,4.586-25.8,4.863-26.181,2.382-3.476,9.626-14.055,3.4-21.578-3.416-4.143-12.5-15.152-99.111,22.637a32.965,32.965,0,0,1-20.541,2.328c-1.244-.285-5.328-1.355-5.659-3.146C10.288,49.811,39.592,23.347,68.15,4.1L60.432.822A10.224,10.224,0,0,0,50.4,1.955C29.825,16.874-2.977,43.682.217,60.956c.811,4.4,4.023,10.159,14.715,12.61a44.652,44.652,0,0,0,27.99-3.025c53.1-23.166,79.3-28.234,84.806-26.056-.153.9-.811,3.085-3.537,7.077-.62.814-15.149,20.215-5.86,38.524,8.927,17.588,36.4,26.486,81.739,26.486q3.6,0,7.356-.075a5.968,5.968,0,0,0,5.844-6.087A5.847,5.847,0,0,0,207.183,104.563Z" transform="translate(0 318.914)" fill="rgba(3,3,3,0.09)"/>
    </g>
  </g>
</svg>
