<svg xmlns="http://www.w3.org/2000/svg" width="98.453" height="100.03" viewBox="0 0 98.453 100.03">
  <g id="feather" transform="translate(-3.693 0.001)">
    <path id="Path_7" data-name="Path 7" d="M277.509,65a9.809,9.809,0,0,1-1.612-.257.626.626,0,0,1-.16-1.159A30.981,30.981,0,0,0,288.072,50.46a.628.628,0,0,0-.932-.786,10.277,10.277,0,0,1-1.333.8.628.628,0,0,1-.714-1.019c4.148-3.837,8.048-11.573,9.8-15.358a.626.626,0,0,0-.825-.836,9.1,9.1,0,0,1-1.99.624.626.626,0,0,1-.531-1.087c5.395-4.644,7.319-12.166,7.966-15.89a.63.63,0,0,0-.987-.618,5.076,5.076,0,0,1-2.515.738A.627.627,0,0,1,295.5,16c6.46-7.768,3.823-14.1,2.994-15.663A.629.629,0,0,0,297.856,0C296.1.233,289.41,1.738,286.8,11.5a.627.627,0,0,1-1.134.178,5.077,5.077,0,0,1-.851-2.479.63.63,0,0,0-1.075-.449c-2.666,2.679-7.692,8.6-8.365,15.683a.626.626,0,0,1-1.194.195,9.1,9.1,0,0,1-.641-1.985.626.626,0,0,0-1.159-.19c-2.075,3.621-6.135,11.274-6.869,16.877a.628.628,0,0,1-1.244.006,10.307,10.307,0,0,1-.118-1.55.628.628,0,0,0-1.18-.307,30.984,30.984,0,0,0-3.582,17.65.626.626,0,0,1-1.038.539,9.835,9.835,0,0,1-1.141-1.167.628.628,0,0,0-1.077.2c-.627,1.767-1.34,5.414.6,10.547a.627.627,0,0,1-.82.807l-.048-.021a.631.631,0,0,0-.886.736,64.689,64.689,0,0,0,3.513,9.273.647.647,0,0,0,.69.357,64.7,64.7,0,0,0,9.6-2.491.631.631,0,0,0,.089-1.149l-.045-.027a.627.627,0,0,1,.185-1.135c5.309-1.384,7.874-4.073,8.954-5.606A.627.627,0,0,0,277.509,65Z" transform="translate(-197.59)" fill="rgba(3,3,3,0.57)"/>
    <path id="Path_8" data-name="Path 8" d="M278.324,44.674s-32.81,50.087-43.089,87.029l2.418-3.417S265.939,65.879,278.324,44.674Z" transform="translate(-182.083 -35.132)" fill="rgba(3,3,3,0.57)"/>
    <path id="Path_9" data-name="Path 9" d="M51.283,366.958c-13.452.283-17.03-2.739-17.96-4.556-1.363-2.665,1.054-5.927,1.117-6.014.547-.8,2.211-3.228.781-4.956-.785-.952-2.872-3.48-22.766,5.2a7.572,7.572,0,0,1-4.718.535c-.286-.065-1.224-.311-1.3-.723-.381-2.062,6.35-8.141,12.909-12.562l-1.773-.753a2.348,2.348,0,0,0-2.3.26c-4.727,3.427-12.261,9.585-11.528,13.552.186,1.01.924,2.333,3.38,2.9a10.256,10.256,0,0,0,6.429-.695c12.2-5.321,18.214-6.485,19.48-5.985a4.542,4.542,0,0,1-.813,1.625c-.142.187-3.48,4.644-1.346,8.849,2.05,4.04,8.362,6.084,18.775,6.084q.827,0,1.69-.017a1.371,1.371,0,0,0,1.342-1.4A1.343,1.343,0,0,0,51.283,366.958Z" transform="translate(0 -269.686)" fill="rgba(3,3,3,0.57)"/>
  </g>
</svg>
