<svg xmlns="http://www.w3.org/2000/svg" width="50.541" height="51.351" viewBox="0 0 50.541 51.351">
  <g id="feather" transform="translate(-3.693 0.001)">
    <path id="Path_7" data-name="Path 7" d="M266.533,33.367a5.037,5.037,0,0,1-.827-.132.322.322,0,0,1-.082-.595,15.9,15.9,0,0,0,6.332-6.737.322.322,0,0,0-.479-.4,5.279,5.279,0,0,1-.684.41.322.322,0,0,1-.367-.523c2.13-1.97,4.131-5.941,5.033-7.884a.322.322,0,0,0-.424-.429,4.673,4.673,0,0,1-1.021.32.321.321,0,0,1-.273-.558c2.769-2.384,3.757-6.245,4.089-8.157a.323.323,0,0,0-.507-.317,2.606,2.606,0,0,1-1.291.379.322.322,0,0,1-.262-.528c3.316-3.988,1.962-7.237,1.537-8.041a.323.323,0,0,0-.33-.171c-.9.117-4.336.89-5.674,5.9a.322.322,0,0,1-.582.091,2.607,2.607,0,0,1-.437-1.273.323.323,0,0,0-.552-.23c-1.369,1.375-3.949,4.413-4.294,8.051a.321.321,0,0,1-.613.1,4.671,4.671,0,0,1-.329-1.019.322.322,0,0,0-.6-.1c-1.065,1.859-3.149,5.788-3.526,8.664a.322.322,0,0,1-.639,0,5.288,5.288,0,0,1-.06-.8.323.323,0,0,0-.606-.157,15.906,15.906,0,0,0-1.839,9.061.322.322,0,0,1-.533.277,5.053,5.053,0,0,1-.586-.6.322.322,0,0,0-.553.1,7.813,7.813,0,0,0,.307,5.414.322.322,0,0,1-.421.414l-.025-.011a.324.324,0,0,0-.455.378,33.206,33.206,0,0,0,1.8,4.76.332.332,0,0,0,.354.183,33.219,33.219,0,0,0,4.927-1.279.324.324,0,0,0,.045-.59l-.023-.014a.322.322,0,0,1,.095-.582,7.812,7.812,0,0,0,4.6-2.878A.322.322,0,0,0,266.533,33.367Z" transform="translate(-223.709)" fill="#2680eb"/>
    <path id="Path_8" data-name="Path 8" d="M257.355,44.674s-16.843,25.712-22.12,44.677l1.241-1.754S251,55.559,257.355,44.674Z" transform="translate(-206.152 -39.776)" fill="#2680eb"/>
    <path id="Path_9" data-name="Path 9" d="M28.124,355.269c-6.905.145-8.742-1.406-9.22-2.339-.7-1.368.541-3.043.573-3.087.281-.41,1.135-1.657.4-2.544-.4-.489-1.474-1.787-11.687,2.669a3.888,3.888,0,0,1-2.422.275c-.147-.034-.628-.16-.667-.371-.2-1.059,3.26-4.179,6.627-6.449l-.91-.387a1.206,1.206,0,0,0-1.183.134c-2.426,1.759-6.294,4.92-5.918,6.957.1.518.474,1.2,1.735,1.487a5.265,5.265,0,0,0,3.3-.357c6.261-2.732,9.35-3.329,10-3.072a2.331,2.331,0,0,1-.417.834c-.073.1-1.786,2.384-.691,4.543,1.053,2.074,4.293,3.123,9.638,3.123q.425,0,.867-.009a.7.7,0,0,0,.689-.718A.69.69,0,0,0,28.124,355.269Z" transform="translate(0 -305.335)" fill="#2680eb"/>
  </g>
</svg>
