<svg xmlns="http://www.w3.org/2000/svg" width="141.906" height="41.71" viewBox="0 0 141.906 41.71">
  <g id="Group_137" data-name="Group 137" transform="translate(-140 -25)">
    <g id="Group_136" data-name="Group 136" transform="translate(140 25)">
      <path id="Union_9" data-name="Union 9" d="M0,19.322,71.011,0,90.965,5.429V0h3.211V6.3l47.73,12.987L71.033,4.816,0,19.323Z" fill="#030303" opacity="0.49"/>
      <g id="Group_135" data-name="Group 135" transform="translate(63.141 14.983)">
        <g id="Group_131" data-name="Group 131">
          <rect id="Rectangle_88" data-name="Rectangle 88" width="8" height="8" transform="translate(-0.141 -0.285)" fill="#030303" opacity="0.59"/>
          <path id="Path_63" data-name="Path 63" d="M0,0A15.566,15.566,0,0,1,1.667,3.367l-.093-.133S.479.82,0,0Z" transform="translate(2.139 2.627) rotate(-17)" fill="#fff"/>
        </g>
        <g id="Group_132" data-name="Group 132" transform="translate(8.561)">
          <rect id="Rectangle_88-2" data-name="Rectangle 88" width="7" height="8" transform="translate(0.298 -0.285)" fill="#030303" opacity="0.59"/>
          <path id="Path_63-2" data-name="Path 63" d="M0,0A15.566,15.566,0,0,1,1.667,3.367l-.093-.133S.479.82,0,0Z" transform="translate(2.139 2.627) rotate(-17)" fill="#fff"/>
        </g>
        <g id="Group_133" data-name="Group 133" transform="translate(8.561 8.561)">
          <rect id="Rectangle_88-3" data-name="Rectangle 88" width="7" height="7" transform="translate(0.298 0.153)" fill="#030303" opacity="0.59"/>
          <path id="Path_63-3" data-name="Path 63" d="M0,0A15.566,15.566,0,0,1,1.667,3.367l-.093-.133S.479.82,0,0Z" transform="translate(2.139 2.627) rotate(-17)" fill="#fff"/>
        </g>
        <g id="Group_134" data-name="Group 134" transform="translate(0 8.561)">
          <rect id="Rectangle_88-4" data-name="Rectangle 88" width="8" height="7" transform="translate(-0.141 0.153)" fill="#030303" opacity="0.59"/>
          <path id="Path_63-4" data-name="Path 63" d="M0,0A15.566,15.566,0,0,1,1.667,3.367l-.093-.133S.479.82,0,0Z" transform="translate(2.139 2.627) rotate(-17)" fill="#fff"/>
        </g>
      </g>
    </g>
    <path id="Path_65" data-name="Path 65" d="M208.562,56.209s-13.912.4-7.639,1.352c1.092.165,2.332.344,3.834.573,5.635.856,11.558,2,1.758,3.167-11.867,1.409-18-.6-18-.6" transform="translate(4.475 4.331)" fill="none" stroke="#707070" stroke-width="1"/>
  </g>
</svg>
