<svg xmlns="http://www.w3.org/2000/svg" width="132.598" height="39.008" viewBox="0 0 132.598 39.008">
  <g id="Group_137" data-name="Group 137" transform="translate(-140 -25)">
    <g id="Group_136" data-name="Group 136" transform="translate(0 -11)">
      <text id="Happy" transform="translate(150.993 62)" fill="#707070" font-size="12" font-family="Roboto-Thin, Roboto" font-weight="200" letter-spacing="0.144em"><tspan x="0" y="0">Happy</tspan></text>
      <text id="Family" transform="translate(218.993 62)" fill="#707070" font-size="12" font-family="Roboto-Thin, Roboto" font-weight="200" letter-spacing="0.141em"><tspan x="0" y="0">Family</tspan></text>
      <path id="Union_9" data-name="Union 9" d="M0,18.055,66.354,0,85,5.073V0h3V5.89l44.6,12.135L66.375,4.5,0,18.056Z" transform="translate(140 36)" fill="#030303" opacity="0.49"/>
      <g id="Group_135" data-name="Group 135" transform="translate(0 -3)">
        <g id="Group_131" data-name="Group 131">
          <rect id="Rectangle_88" data-name="Rectangle 88" width="7" height="7" transform="translate(199 53)" fill="#030303" opacity="0.59"/>
          <path id="Path_63" data-name="Path 63" d="M235.235,44.674a14.545,14.545,0,0,1,1.558,3.146l-.087-.124S235.683,45.44,235.235,44.674Z" transform="translate(-37.018 81.509) rotate(-17)" fill="#fff"/>
        </g>
        <g id="Group_132" data-name="Group 132" transform="translate(8)">
          <rect id="Rectangle_88-2" data-name="Rectangle 88" width="7" height="7" transform="translate(199 53)" fill="#030303" opacity="0.59"/>
          <path id="Path_63-2" data-name="Path 63" d="M235.235,44.674a14.545,14.545,0,0,1,1.558,3.146l-.087-.124S235.683,45.44,235.235,44.674Z" transform="translate(-37.018 81.509) rotate(-17)" fill="#fff"/>
        </g>
        <g id="Group_133" data-name="Group 133" transform="translate(8 8)">
          <rect id="Rectangle_88-3" data-name="Rectangle 88" width="7" height="7" transform="translate(199 53)" fill="#030303" opacity="0.59"/>
          <path id="Path_63-3" data-name="Path 63" d="M235.235,44.674a14.545,14.545,0,0,1,1.558,3.146l-.087-.124S235.683,45.44,235.235,44.674Z" transform="translate(-37.018 81.509) rotate(-17)" fill="#fff"/>
        </g>
        <g id="Group_134" data-name="Group 134" transform="translate(0 8)">
          <rect id="Rectangle_88-4" data-name="Rectangle 88" width="7" height="7" transform="translate(199 53)" fill="#030303" opacity="0.59"/>
          <path id="Path_63-4" data-name="Path 63" d="M235.235,44.674a14.545,14.545,0,0,1,1.558,3.146l-.087-.124S235.683,45.44,235.235,44.674Z" transform="translate(-37.018 81.509) rotate(-17)" fill="#fff"/>
        </g>
      </g>
    </g>
    <path id="Path_65" data-name="Path 65" d="M207.247,56.209s-13,.376-7.138,1.263c1.02.154,2.179.321,3.583.535,5.265.8,10.8,1.872,1.643,2.959-11.089,1.317-16.824-.564-16.824-.564" transform="translate(1 2)" fill="none" stroke="#707070" stroke-width="1"/>
  </g>
</svg>
